<svg width="29" height="29" viewBox="0 0 29 29" fill="none" xmlns="http://www.w3.org/2000/svg">
<path d="M9.02263 1.55003C8.99233 1.43145 8.93832 1.32024 8.86386 1.2231C8.78941 1.12596 8.69605 1.04491 8.58941 0.984838C8.48278 0.924764 8.36508 0.886913 8.24342 0.873568C8.12175 0.860222 7.99865 0.871659 7.88153 0.907187C7.76441 0.942716 7.65569 1.0016 7.56195 1.08029C7.46821 1.15898 7.39137 1.25584 7.33608 1.36503C7.2808 1.47422 7.2482 1.59348 7.24026 1.71562C7.23232 1.83775 7.2492 1.96023 7.28988 2.07566L8.03301 4.52616C6.36691 6.21912 5.43447 8.50006 5.43751 10.8753H23.5625C23.5655 8.50006 22.6331 6.21912 20.967 4.52616L21.7101 2.07566C21.7508 1.96023 21.7677 1.83775 21.7598 1.71562C21.7518 1.59348 21.7192 1.47422 21.6639 1.36503C21.6086 1.25584 21.5318 1.15898 21.4381 1.08029C21.3443 1.0016 21.2356 0.942716 21.1185 0.907187C21.0014 0.871659 20.8783 0.860222 20.7566 0.873568C20.6349 0.886913 20.5172 0.924764 20.4106 0.984838C20.304 1.04491 20.2106 1.12596 20.1362 1.2231C20.0617 1.32024 20.0077 1.43145 19.9774 1.55003L19.4499 3.28278C17.9784 2.32105 16.258 1.81015 14.5 1.81285C12.7421 1.81025 11.0217 2.32115 9.55007 3.28278L9.02263 1.55003Z" fill="#E74C3C"/>
<path d="M23.5625 10.875V12.6875H15.4062V28.9547C17.6416 28.73 19.7139 27.683 21.221 26.0169C22.7281 24.3507 23.5625 22.1841 23.5625 19.9375H24.4688C24.7091 19.9375 24.9396 20.033 25.1096 20.2029C25.2795 20.3729 25.375 20.6034 25.375 20.8438V21.75C25.375 21.9904 25.4705 22.2209 25.6404 22.3908C25.8104 22.5608 26.0409 22.6563 26.2812 22.6563C26.5216 22.6563 26.7521 22.5608 26.9221 22.3908C27.092 22.2209 27.1875 21.9904 27.1875 21.75V20.8438C27.1875 20.1227 26.9011 19.4312 26.3912 18.9213C25.8813 18.4114 25.1898 18.125 24.4688 18.125H23.5625V16.3125H26.2812C26.5216 16.3125 26.7521 16.217 26.9221 16.0471C27.092 15.8771 27.1875 15.6466 27.1875 15.4063C27.1875 15.1659 27.092 14.9354 26.9221 14.7654C26.7521 14.5955 26.5216 14.5 26.2812 14.5H23.5625V12.6875H24.4688C25.1898 12.6875 25.8813 12.4011 26.3912 11.8912C26.9011 11.3813 27.1875 10.6898 27.1875 9.96875V9.0625C27.1875 8.82215 27.092 8.59164 26.9221 8.42168C26.7521 8.25173 26.5216 8.15625 26.2812 8.15625C26.0409 8.15625 25.8104 8.25173 25.6404 8.42168C25.4705 8.59164 25.375 8.82215 25.375 9.0625V9.96875C25.375 10.2091 25.2795 10.4396 25.1096 10.6096C24.9396 10.7795 24.7091 10.875 24.4688 10.875H23.5625ZM13.5938 28.9547V12.6875H5.4375V10.875H4.53125C4.2909 10.875 4.06039 10.7795 3.89043 10.6096C3.72048 10.4396 3.625 10.2091 3.625 9.96875V9.0625C3.625 8.82215 3.52952 8.59164 3.35957 8.42168C3.18961 8.25173 2.9591 8.15625 2.71875 8.15625C2.4784 8.15625 2.24789 8.25173 2.07793 8.42168C1.90798 8.59164 1.8125 8.82215 1.8125 9.0625V9.96875C1.8125 10.6898 2.09894 11.3813 2.6088 11.8912C3.11867 12.4011 3.81019 12.6875 4.53125 12.6875H5.4375V14.5H2.71875C2.4784 14.5 2.24789 14.5955 2.07793 14.7654C1.90798 14.9354 1.8125 15.1659 1.8125 15.4063C1.8125 15.6466 1.90798 15.8771 2.07793 16.0471C2.24789 16.217 2.4784 16.3125 2.71875 16.3125H5.4375V18.125H4.53125C3.81019 18.125 3.11867 18.4114 2.6088 18.9213C2.09894 19.4312 1.8125 20.1227 1.8125 20.8438V21.75C1.8125 21.9904 1.90798 22.2209 2.07793 22.3908C2.24789 22.5608 2.4784 22.6563 2.71875 22.6563C2.9591 22.6563 3.18961 22.5608 3.35957 22.3908C3.52952 22.2209 3.625 21.9904 3.625 21.75V20.8438C3.625 20.6034 3.72048 20.3729 3.89043 20.2029C4.06039 20.033 4.2909 19.9375 4.53125 19.9375H5.4375C5.43747 22.1841 6.27195 24.3507 7.77903 26.0169C9.28612 27.683 11.3584 28.73 13.5938 28.9547Z" fill="#E74C3C"/>
</svg>
