<svg width="16" height="16" viewBox="0 0 16 16" fill="none" xmlns="http://www.w3.org/2000/svg">
<path fill-rule="evenodd" clip-rule="evenodd" d="M1.64689 11.3541C1.69334 11.4006 1.74852 11.4376 1.80926 11.4628C1.87001 11.488 1.93513 11.501 2.00089 11.501C2.06666 11.501 2.13178 11.488 2.19253 11.4628C2.25327 11.4376 2.30845 11.4006 2.35489 11.3541L8.00089 5.70708L13.6469 11.3541C13.6934 11.4006 13.7486 11.4374 13.8093 11.4626C13.87 11.4878 13.9352 11.5007 14.0009 11.5007C14.0666 11.5007 14.1317 11.4878 14.1925 11.4626C14.2532 11.4374 14.3084 11.4006 14.3549 11.3541C14.4014 11.3076 14.4383 11.2524 14.4634 11.1917C14.4886 11.1309 14.5015 11.0658 14.5015 11.0001C14.5015 10.9343 14.4886 10.8692 14.4634 10.8085C14.4383 10.7478 14.4014 10.6926 14.3549 10.6461L8.35489 4.64608C8.30845 4.59952 8.25327 4.56258 8.19253 4.53737C8.13178 4.51216 8.06666 4.49919 8.00089 4.49919C7.93513 4.49919 7.87001 4.51216 7.80926 4.53737C7.74852 4.56258 7.69334 4.59952 7.64689 4.64608L1.64689 10.6461C1.60033 10.6925 1.56339 10.7477 1.53818 10.8084C1.51297 10.8692 1.5 10.9343 1.5 11.0001C1.5 11.0659 1.51297 11.131 1.53818 11.1917C1.56339 11.2525 1.60033 11.3076 1.64689 11.3541Z" fill="black"/>
</svg>
