<svg width="29" height="29" viewBox="0 0 29 29" fill="none" xmlns="http://www.w3.org/2000/svg">
<path d="M0 14.5C0 21.5071 6.49237 27.1875 14.5 27.1875C15.9361 27.1894 17.3663 27.003 18.7539 26.6329C19.8124 27.1694 22.243 28.1989 26.332 28.8695C26.6945 28.9275 26.97 28.5505 26.8268 28.2134C26.1852 26.6981 25.6052 24.679 25.4312 22.8375C27.6515 20.6081 29 17.69 29 14.5C29 7.49288 22.5076 1.8125 14.5 1.8125C6.49237 1.8125 0 7.49288 0 14.5ZM19.9375 14.5C19.9375 14.0193 20.1285 13.5583 20.4684 13.2184C20.8083 12.8785 21.2693 12.6875 21.75 12.6875C22.2307 12.6875 22.6917 12.8785 23.0316 13.2184C23.3715 13.5583 23.5625 14.0193 23.5625 14.5C23.5625 14.9807 23.3715 15.4417 23.0316 15.7816C22.6917 16.1215 22.2307 16.3125 21.75 16.3125C21.2693 16.3125 20.8083 16.1215 20.4684 15.7816C20.1285 15.4417 19.9375 14.9807 19.9375 14.5ZM12.6875 14.5C12.6875 14.0193 12.8785 13.5583 13.2184 13.2184C13.5583 12.8785 14.0193 12.6875 14.5 12.6875C14.9807 12.6875 15.4417 12.8785 15.7816 13.2184C16.1215 13.5583 16.3125 14.0193 16.3125 14.5C16.3125 14.9807 16.1215 15.4417 15.7816 15.7816C15.4417 16.1215 14.9807 16.3125 14.5 16.3125C14.0193 16.3125 13.5583 16.1215 13.2184 15.7816C12.8785 15.4417 12.6875 14.9807 12.6875 14.5ZM7.25 16.3125C6.76929 16.3125 6.30828 16.1215 5.96837 15.7816C5.62846 15.4417 5.4375 14.9807 5.4375 14.5C5.4375 14.0193 5.62846 13.5583 5.96837 13.2184C6.30828 12.8785 6.76929 12.6875 7.25 12.6875C7.73071 12.6875 8.19172 12.8785 8.53163 13.2184C8.87154 13.5583 9.0625 14.0193 9.0625 14.5C9.0625 14.9807 8.87154 15.4417 8.53163 15.7816C8.19172 16.1215 7.73071 16.3125 7.25 16.3125Z" fill="#237BC9"/>
</svg>
