<svg width="16" height="16" viewBox="0 0 16 16" fill="none" xmlns="http://www.w3.org/2000/svg">
<path fill-rule="evenodd" clip-rule="evenodd" d="M11.3531 14.3541C11.3997 14.3076 11.4366 14.2525 11.4618 14.1917C11.487 14.131 11.5 14.0659 11.5 14.0001C11.5 13.9343 11.487 13.8692 11.4618 13.8084C11.4366 13.7477 11.3997 13.6925 11.3531 13.6461L5.70611 8.00008L11.3531 2.35408C11.3996 2.3076 11.4365 2.25241 11.4616 2.19167C11.4868 2.13093 11.4997 2.06583 11.4997 2.00008C11.4997 1.93434 11.4868 1.86924 11.4616 1.8085C11.4365 1.74776 11.3996 1.69257 11.3531 1.64608C11.3066 1.5996 11.2514 1.56272 11.1907 1.53756C11.13 1.5124 11.0649 1.49945 10.9991 1.49945C10.9334 1.49945 10.8683 1.5124 10.8075 1.53756C10.7468 1.56272 10.6916 1.5996 10.6451 1.64608L4.64511 7.64608C4.59854 7.69253 4.5616 7.7477 4.53639 7.80845C4.51119 7.86919 4.49821 7.93432 4.49821 8.00008C4.49821 8.06585 4.51119 8.13097 4.53639 8.19172C4.5616 8.25246 4.59854 8.30764 4.64511 8.35408L10.6451 14.3541C10.6916 14.4006 10.7467 14.4376 10.8075 14.4628C10.8682 14.488 10.9333 14.501 10.9991 14.501C11.0649 14.501 11.13 14.488 11.1907 14.4628C11.2515 14.4376 11.3067 14.4006 11.3531 14.3541Z" fill="black"/>
</svg>
