<svg width="26" height="26" viewBox="0 0 26 26" fill="none" xmlns="http://www.w3.org/2000/svg">
<path d="M14.1479 2.43769C13.8432 2.13305 13.43 1.96191 12.9991 1.96191C12.5682 1.96191 12.1549 2.13305 11.8502 2.43769L1.04882 13.2374C0.97328 13.313 0.913356 13.4027 0.872473 13.5014C0.831589 13.6001 0.810547 13.7059 0.810547 13.8127C0.810547 13.9195 0.831589 14.0253 0.872473 14.124C0.913356 14.2227 0.97328 14.3124 1.04882 14.3879C1.20139 14.5405 1.40831 14.6262 1.62407 14.6262C1.73091 14.6262 1.83669 14.6052 1.9354 14.5643C2.0341 14.5234 2.12378 14.4635 2.19932 14.3879L12.9991 3.58657L23.7988 14.3879C23.9514 14.5405 24.1583 14.6262 24.3741 14.6262C24.5898 14.6262 24.7968 14.5405 24.9493 14.3879C25.1019 14.2354 25.1876 14.0285 25.1876 13.8127C25.1876 13.5969 25.1019 13.39 24.9493 13.2374L21.1241 9.41382V4.06269C21.1241 3.8472 21.0385 3.64054 20.8861 3.48817C20.7337 3.33579 20.5271 3.25019 20.3116 3.25019H18.6866C18.4711 3.25019 18.2644 3.33579 18.112 3.48817C17.9597 3.64054 17.8741 3.8472 17.8741 4.06269V6.16382L14.1479 2.43769Z" fill="#135C9D"/>
<path d="M13 5.35156L22.75 15.1016V21.9379C22.75 22.5844 22.4932 23.2044 22.0361 23.6615C21.579 24.1186 20.959 24.3754 20.3125 24.3754H5.6875C5.04103 24.3754 4.42105 24.1186 3.96393 23.6615C3.50681 23.2044 3.25 22.5844 3.25 21.9379V15.1016L13 5.35156Z" fill="#135C9D"/>
</svg>
