<svg width="16" height="16" viewBox="0 0 16 16" fill="none" xmlns="http://www.w3.org/2000/svg">
<path fill-rule="evenodd" clip-rule="evenodd" d="M1.64689 4.64592C1.69334 4.59935 1.74852 4.56241 1.80926 4.5372C1.87001 4.512 1.93513 4.49902 2.00089 4.49902C2.06666 4.49902 2.13178 4.512 2.19253 4.5372C2.25327 4.56241 2.30845 4.59935 2.35489 4.64592L8.00089 10.2929L13.6469 4.64592C13.6934 4.59943 13.7486 4.56255 13.8093 4.53739C13.87 4.51223 13.9352 4.49929 14.0009 4.49929C14.0666 4.49929 14.1317 4.51223 14.1925 4.53739C14.2532 4.56255 14.3084 4.59943 14.3549 4.64592C14.4014 4.6924 14.4383 4.74759 14.4634 4.80833C14.4886 4.86907 14.5015 4.93417 14.5015 4.99992C14.5015 5.06566 14.4886 5.13076 14.4634 5.1915C14.4383 5.25224 14.4014 5.30743 14.3549 5.35392L8.35489 11.3539C8.30845 11.4005 8.25327 11.4374 8.19253 11.4626C8.13178 11.4878 8.06666 11.5008 8.00089 11.5008C7.93513 11.5008 7.87001 11.4878 7.80926 11.4626C7.74852 11.4374 7.69334 11.4005 7.64689 11.3539L1.64689 5.35392C1.60033 5.30747 1.56339 5.2523 1.53818 5.19155C1.51297 5.13081 1.5 5.06568 1.5 4.99992C1.5 4.93415 1.51297 4.86903 1.53818 4.80828C1.56339 4.74754 1.60033 4.69236 1.64689 4.64592Z" fill="black"/>
</svg>
