<svg width="29" height="29" viewBox="0 0 29 29" fill="none" xmlns="http://www.w3.org/2000/svg">
<g clip-path="url(#clip0_6718_2911)">
<path d="M20.7712 0.264625C20.6014 0.0952125 20.3713 5.09656e-05 20.1314 0L8.86856 0C8.62867 5.09656e-05 8.39859 0.0952125 8.22875 0.264625L0.264625 8.22875C0.0952125 8.39859 5.09656e-05 8.62867 0 8.86856L0 20.1314C5.09656e-05 20.3713 0.0952125 20.6014 0.264625 20.7712L8.22875 28.7354C8.39859 28.9048 8.62867 28.9999 8.86856 29H20.1314C20.3713 28.9999 20.6014 28.9048 20.7712 28.7354L28.7354 20.7712C28.9048 20.6014 28.9999 20.3713 29 20.1314V8.86856C28.9999 8.62867 28.9048 8.39859 28.7354 8.22875L20.7712 0.264625ZM14.5 7.25C15.4697 7.25 16.2291 8.08737 16.1312 9.05344L15.4969 15.4099C15.4756 15.6596 15.3613 15.8922 15.1767 16.0617C14.9921 16.2312 14.7506 16.3253 14.5 16.3253C14.2494 16.3253 14.0079 16.2312 13.8233 16.0617C13.6387 15.8922 13.5244 15.6596 13.5031 15.4099L12.8687 9.05344C12.846 8.82549 12.8712 8.59529 12.9428 8.37768C13.0144 8.16006 13.1308 7.95986 13.2844 7.78996C13.4381 7.62007 13.6257 7.48424 13.835 7.39124C14.0444 7.29824 14.2709 7.25013 14.5 7.25ZM14.5036 18.125C14.9843 18.125 15.4453 18.316 15.7853 18.6559C16.1252 18.9958 16.3161 19.4568 16.3161 19.9375C16.3161 20.4182 16.1252 20.8792 15.7853 21.2191C15.4453 21.559 14.9843 21.75 14.5036 21.75C14.0229 21.75 13.5619 21.559 13.222 21.2191C12.8821 20.8792 12.6911 20.4182 12.6911 19.9375C12.6911 19.4568 12.8821 18.9958 13.222 18.6559C13.5619 18.316 14.0229 18.125 14.5036 18.125Z" fill="#F1C40F"/>
</g>
<defs>
<clipPath id="clip0_6718_2911">
<rect width="29" height="29" fill="white"/>
</clipPath>
</defs>
</svg>
