<svg width="35" height="35" viewBox="0 0 35 35" fill="none" xmlns="http://www.w3.org/2000/svg">
<path d="M27.8608 8.68423C28.0101 8.53191 28.1883 8.4109 28.3849 8.32829C28.5816 8.24568 28.7927 8.20312 29.006 8.20312C29.2193 8.20312 29.4304 8.24568 29.6271 8.32829C29.8237 8.4109 30.0019 8.53191 30.1512 8.68423C30.7768 9.31642 30.7855 10.338 30.173 10.9811L17.2383 26.2717C17.0915 26.433 16.9133 26.5626 16.7146 26.6526C16.5159 26.7426 16.301 26.7912 16.0829 26.7953C15.8648 26.7994 15.6482 26.7589 15.4463 26.6764C15.2444 26.5939 15.0615 26.4711 14.9087 26.3155L7.03803 18.3399C6.73449 18.0303 6.56445 17.614 6.56445 17.1805C6.56445 16.7469 6.73449 16.3307 7.03803 16.0211C7.18732 15.8688 7.36549 15.7478 7.56213 15.6652C7.75876 15.5826 7.9699 15.54 8.18319 15.54C8.39647 15.54 8.60761 15.5826 8.80424 15.6652C9.00088 15.7478 9.17905 15.8688 9.32834 16.0211L16.0046 22.787L27.8171 8.73236C27.8307 8.71545 27.8453 8.69938 27.8608 8.68423Z" fill="#2ECC71"/>
</svg>
