<svg width="24" height="16" viewBox="0 0 24 16" fill="none" xmlns="http://www.w3.org/2000/svg">
<path fill-rule="evenodd" clip-rule="evenodd" d="M5.469 4.14592C5.53867 4.09935 5.62143 4.06241 5.71255 4.0372C5.80367 4.012 5.90135 3.99902 6 3.99902C6.09865 3.99902 6.19633 4.012 6.28745 4.0372C6.37857 4.06241 6.46133 4.09935 6.531 4.14592L12 7.79292L17.469 4.14592C17.6098 4.05203 17.8008 3.99929 18 3.99929C18.1992 3.99929 18.3902 4.05203 18.531 4.14592C18.6718 4.2398 18.7509 4.36714 18.7509 4.49992C18.7509 4.63269 18.6718 4.76003 18.531 4.85392L12.531 8.85392C12.4613 8.90048 12.3786 8.93742 12.2874 8.96263C12.1963 8.98784 12.0987 9.00081 12 9.00081C11.9013 9.00081 11.8037 8.98784 11.7125 8.96263C11.6214 8.93742 11.5387 8.90048 11.469 8.85392L5.469 4.85392C5.39915 4.80747 5.34374 4.7523 5.30593 4.69155C5.26812 4.63081 5.24866 4.56568 5.24866 4.49992C5.24866 4.43415 5.26812 4.36903 5.30593 4.30828C5.34374 4.24754 5.39915 4.19236 5.469 4.14592ZM1.5 11.4999C1.5 11.3673 1.57902 11.2401 1.71967 11.1464C1.86032 11.0526 2.05109 10.9999 2.25 10.9999H21.75C21.9489 10.9999 22.1397 11.0526 22.2803 11.1464C22.421 11.2401 22.5 11.3673 22.5 11.4999C22.5 11.6325 22.421 11.7597 22.2803 11.8535C22.1397 11.9472 21.9489 11.9999 21.75 11.9999H2.25C2.05109 11.9999 1.86032 11.9472 1.71967 11.8535C1.57902 11.7597 1.5 11.6325 1.5 11.4999Z" fill="black"/>
</svg>
