<svg width="24" height="24" viewBox="0 0 24 24" fill="none" xmlns="http://www.w3.org/2000/svg">
<path d="M12.7509 9.75C12.7509 9.55109 12.6719 9.36032 12.5313 9.21967C12.3906 9.07902 12.1999 9 12.0009 9C11.802 9 11.6113 9.07902 11.4706 9.21967C11.33 9.36032 11.2509 9.55109 11.2509 9.75V15.4395L9.53195 13.719C9.46222 13.6493 9.37943 13.594 9.28832 13.5562C9.19721 13.5185 9.09956 13.4991 9.00095 13.4991C8.90233 13.4991 8.80468 13.5185 8.71357 13.5562C8.62246 13.594 8.53968 13.6493 8.46995 13.719C8.40022 13.7887 8.3449 13.8715 8.30716 13.9626C8.26942 14.0537 8.25 14.1514 8.25 14.25C8.25 14.3486 8.26942 14.4463 8.30716 14.5374C8.3449 14.6285 8.40022 14.7113 8.46995 14.781L11.4699 17.781C11.5396 17.8508 11.6224 17.9063 11.7135 17.9441C11.8046 17.9819 11.9023 18.0013 12.0009 18.0013C12.0996 18.0013 12.1973 17.9819 12.2884 17.9441C12.3795 17.9063 12.4623 17.8508 12.5319 17.781L15.5319 14.781C15.6017 14.7113 15.657 14.6285 15.6947 14.5374C15.7325 14.4463 15.7519 14.3486 15.7519 14.25C15.7519 14.1514 15.7325 14.0537 15.6947 13.9626C15.657 13.8715 15.6017 13.7887 15.5319 13.719C15.4622 13.6493 15.3794 13.594 15.2883 13.5562C15.1972 13.5185 15.0996 13.4991 15.0009 13.4991C14.9023 13.4991 14.8047 13.5185 14.7136 13.5562C14.6225 13.594 14.5397 13.6493 14.4699 13.719L12.7509 15.4395V9.75Z" fill="black"/>
<path d="M21 21V6.75L14.25 0H6C5.20435 0 4.44129 0.316071 3.87868 0.87868C3.31607 1.44129 3 2.20435 3 3V21C3 21.7956 3.31607 22.5587 3.87868 23.1213C4.44129 23.6839 5.20435 24 6 24H18C18.7956 24 19.5587 23.6839 20.1213 23.1213C20.6839 22.5587 21 21.7956 21 21ZM14.25 4.5C14.25 5.09674 14.4871 5.66903 14.909 6.09099C15.331 6.51295 15.9033 6.75 16.5 6.75H19.5V21C19.5 21.3978 19.342 21.7794 19.0607 22.0607C18.7794 22.342 18.3978 22.5 18 22.5H6C5.60218 22.5 5.22064 22.342 4.93934 22.0607C4.65804 21.7794 4.5 21.3978 4.5 21V3C4.5 2.60218 4.65804 2.22064 4.93934 1.93934C5.22064 1.65804 5.60218 1.5 6 1.5H14.25V4.5Z" fill="black"/>
</svg>
