<svg width="16" height="16" viewBox="0 0 16 16" fill="none" xmlns="http://www.w3.org/2000/svg">
<path fill-rule="evenodd" clip-rule="evenodd" d="M4.64689 14.3541C4.60033 14.3076 4.56339 14.2525 4.53818 14.1917C4.51297 14.131 4.5 14.0659 4.5 14.0001C4.5 13.9343 4.51297 13.8692 4.53818 13.8084C4.56339 13.7477 4.60033 13.6925 4.64689 13.6461L10.2939 8.00008L4.64689 2.35408C4.60041 2.3076 4.56353 2.25241 4.53837 2.19167C4.51321 2.13093 4.50026 2.06583 4.50026 2.00008C4.50026 1.93434 4.51321 1.86924 4.53837 1.8085C4.56353 1.74776 4.60041 1.69257 4.64689 1.64608C4.69338 1.5996 4.74857 1.56272 4.80931 1.53756C4.87005 1.5124 4.93515 1.49945 5.00089 1.49945C5.06664 1.49945 5.13174 1.5124 5.19248 1.53756C5.25322 1.56272 5.30841 1.5996 5.35489 1.64608L11.3549 7.64608C11.4015 7.69253 11.4384 7.7477 11.4636 7.80845C11.4888 7.86919 11.5018 7.93432 11.5018 8.00008C11.5018 8.06585 11.4888 8.13097 11.4636 8.19172C11.4384 8.25246 11.4015 8.30764 11.3549 8.35408L5.35489 14.3541C5.30845 14.4006 5.25327 14.4376 5.19253 14.4628C5.13178 14.488 5.06666 14.501 5.00089 14.501C4.93513 14.501 4.87001 14.488 4.80926 14.4628C4.74851 14.4376 4.69334 14.4006 4.64689 14.3541Z" fill="black"/>
</svg>
