<svg width="24" height="24" viewBox="0 0 24 24" fill="none" xmlns="http://www.w3.org/2000/svg">
<path d="M17.3599 15.5915C19.0609 14.0735 20.0009 12.3535 20.0009 12.3535C20.0009 12.3535 17.0009 6.85352 12.0009 6.85352C11.0405 6.85682 10.091 7.05694 9.21094 7.44152L9.98094 8.21252C10.6284 7.97667 11.3119 7.85519 12.0009 7.85352C14.1209 7.85352 15.8799 9.02152 17.1689 10.3105C17.7893 10.9342 18.3454 11.6186 18.8289 12.3535C18.7709 12.4405 18.7069 12.5365 18.6339 12.6415C18.2989 13.1215 17.8039 13.7615 17.1689 14.3965C17.0039 14.5615 16.8319 14.7245 16.6519 14.8825L17.3599 15.5915Z" fill="black"/>
<path d="M15.2954 13.5299C15.5186 12.9057 15.5599 12.231 15.4146 11.5843C15.2693 10.9376 14.9433 10.3454 14.4746 9.87669C14.0059 9.40798 13.4137 9.08201 12.767 8.9367C12.1203 8.79139 11.4456 8.83272 10.8214 9.05587L11.6444 9.87887C12.0287 9.82386 12.4206 9.85911 12.7889 9.98183C13.1572 10.1046 13.4919 10.3114 13.7664 10.5859C14.0409 10.8604 14.2477 11.1951 14.3704 11.5634C14.4932 11.9317 14.5284 12.3236 14.4734 12.7079L15.2954 13.5299ZM12.3524 14.8289L13.1744 15.6509C12.5502 15.874 11.8755 15.9154 11.2288 15.77C10.5821 15.6247 9.98993 15.2988 9.52122 14.8301C9.05251 14.3613 8.72654 13.7692 8.58123 13.1224C8.43592 12.4757 8.47725 11.801 8.7004 11.1769L9.5234 11.9999C9.46839 12.3842 9.50365 12.776 9.62636 13.1443C9.74908 13.5127 9.95589 13.8473 10.2304 14.1219C10.5049 14.3964 10.8396 14.6032 11.2079 14.7259C11.5763 14.8486 11.9681 14.8839 12.3524 14.8289Z" fill="black"/>
<path d="M7.35 9.824C7.17 9.984 6.997 10.146 6.832 10.311C6.21165 10.9347 5.65552 11.6191 5.172 12.354L5.367 12.642C5.702 13.122 6.197 13.762 6.832 14.397C8.121 15.686 9.881 16.854 12 16.854C12.716 16.854 13.39 16.721 14.02 16.494L14.79 17.266C13.9099 17.6505 12.9604 17.8507 12 17.854C7 17.854 4 12.354 4 12.354C4 12.354 4.939 10.633 6.641 9.116L7.349 9.825L7.35 9.824ZM17.646 18.708L5.646 6.708L6.354 6L18.354 18L17.646 18.708Z" fill="black"/>
</svg>
