<svg width="27" height="24" viewBox="0 0 27 24" fill="none" xmlns="http://www.w3.org/2000/svg">
<path d="M8.83333 1H16.3318C16.7074 1.00008 17.0677 1.14499 17.3333 1.40288L22.5849 6.5C22.8506 6.7578 22.9999 7.10748 23 7.47212V20.25C23 20.9793 22.7015 21.6788 22.1701 22.1945C21.6388 22.7103 20.9181 23 20.1667 23H8.83333C8.08189 23 7.36122 22.7103 6.82986 22.1945C6.29851 21.6788 6 20.9793 6 20.25V3.75C6 3.02065 6.29851 2.32118 6.82986 1.80546C7.36122 1.28973 8.08189 1 8.83333 1ZM16.625 3.0625V5.8125C16.625 6.17717 16.7743 6.52691 17.0399 6.78477C17.3056 7.04263 17.6659 7.1875 18.0417 7.1875H20.875L16.625 3.0625Z" fill="#135C9D"/>
</svg>
