<svg width="12" height="14" viewBox="0 0 12 14" fill="none" xmlns="http://www.w3.org/2000/svg">
<path d="M8.57143 1.3125V2.1875H11.5714C11.6851 2.1875 11.7941 2.23359 11.8745 2.31564C11.9548 2.39769 12 2.50897 12 2.625C12 2.74103 11.9548 2.85231 11.8745 2.93436C11.7941 3.01641 11.6851 3.0625 11.5714 3.0625H11.1103L10.3791 12.39C10.3447 12.8285 10.1496 13.2377 9.83291 13.5361C9.51618 13.8345 9.10098 14.0001 8.67 14H3.33C2.89902 14.0001 2.48382 13.8345 2.16709 13.5361C1.85036 13.2377 1.65534 12.8285 1.62086 12.39L0.889714 3.0625H0.428571C0.314907 3.0625 0.205898 3.01641 0.125526 2.93436C0.0451529 2.85231 0 2.74103 0 2.625C0 2.50897 0.0451529 2.39769 0.125526 2.31564C0.205898 2.23359 0.314907 2.1875 0.428571 2.1875H3.42857V1.3125C3.42857 0.964403 3.56403 0.630564 3.80515 0.384422C4.04627 0.138281 4.37329 0 4.71429 0L7.28571 0C7.62671 0 7.95373 0.138281 8.19485 0.384422C8.43597 0.630564 8.57143 0.964403 8.57143 1.3125ZM4.28571 1.3125V2.1875H7.71429V1.3125C7.71429 1.19647 7.66913 1.08519 7.58876 1.00314C7.50839 0.921094 7.39938 0.875 7.28571 0.875H4.71429C4.60062 0.875 4.49161 0.921094 4.41124 1.00314C4.33087 1.08519 4.28571 1.19647 4.28571 1.3125ZM3 4.40037L3.42857 11.8379C3.43086 11.896 3.44448 11.9531 3.46865 12.0058C3.49282 12.0585 3.52704 12.1057 3.56931 12.1448C3.61158 12.1838 3.66105 12.2138 3.71483 12.2331C3.76861 12.2524 3.82562 12.2605 3.88252 12.257C3.93941 12.2535 3.99505 12.2385 4.04619 12.2128C4.09732 12.1871 4.14291 12.1512 4.1803 12.1073C4.21768 12.0634 4.24611 12.0123 4.26392 11.957C4.28172 11.9017 4.28855 11.8434 4.284 11.7854L3.85543 4.34787C3.85314 4.28974 3.83952 4.23265 3.81535 4.17995C3.79118 4.12725 3.75696 4.08 3.71469 4.04097C3.67242 4.00194 3.62295 3.97191 3.56917 3.95263C3.51539 3.93336 3.45838 3.92523 3.40148 3.92872C3.34459 3.93221 3.28895 3.94726 3.23781 3.97297C3.18668 3.99868 3.14109 4.03455 3.1037 4.07847C3.06632 4.12239 3.03789 4.17348 3.02008 4.22876C3.00227 4.28403 2.99545 4.34237 3 4.40037ZM8.59714 3.93837C8.48372 3.93168 8.37232 3.97124 8.28746 4.04836C8.20259 4.12548 8.1512 4.23384 8.14457 4.34963L7.716 11.7871C7.71232 11.9012 7.75245 12.0122 7.82783 12.0965C7.90321 12.1808 8.00786 12.2317 8.11947 12.2383C8.23108 12.2449 8.34081 12.2067 8.42525 12.1319C8.50968 12.0571 8.56214 11.9516 8.57143 11.8379L9 4.40037C9.00656 4.28458 8.9678 4.17087 8.89226 4.08424C8.81672 3.99761 8.71057 3.94514 8.59714 3.93837ZM6 3.9375C5.88634 3.9375 5.77733 3.98359 5.69695 4.06564C5.61658 4.14769 5.57143 4.25897 5.57143 4.375V11.8125C5.57143 11.9285 5.61658 12.0398 5.69695 12.1219C5.77733 12.2039 5.88634 12.25 6 12.25C6.11366 12.25 6.22267 12.2039 6.30305 12.1219C6.38342 12.0398 6.42857 11.9285 6.42857 11.8125V4.375C6.42857 4.25897 6.38342 4.14769 6.30305 4.06564C6.22267 3.98359 6.11366 3.9375 6 3.9375Z" fill="black"/>
</svg>
