<svg width="24" height="24" viewBox="0 0 24 24" fill="none" xmlns="http://www.w3.org/2000/svg">
<path d="M20 11.5C20 11.5 17 6 12 6C7 6 4 11.5 4 11.5C4 11.5 7 17 12 17C17 17 20 11.5 20 11.5ZM5.173 11.5C5.65651 10.7651 6.21264 10.0807 6.833 9.457C8.12 8.168 9.88 7 12 7C14.12 7 15.879 8.168 17.168 9.457C17.7884 10.0807 18.3445 10.7651 18.828 11.5C18.77 11.587 18.706 11.683 18.633 11.788C18.298 12.268 17.803 12.908 17.168 13.543C15.879 14.832 14.119 16 12 16C9.88 16 8.121 14.832 6.832 13.543C6.21165 12.9193 5.65552 12.2349 5.172 11.5H5.173Z" fill="black"/>
<path d="M12 9C11.337 9 10.7011 9.26339 10.2322 9.73223C9.76339 10.2011 9.5 10.837 9.5 11.5C9.5 12.163 9.76339 12.7989 10.2322 13.2678C10.7011 13.7366 11.337 14 12 14C12.663 14 13.2989 13.7366 13.7678 13.2678C14.2366 12.7989 14.5 12.163 14.5 11.5C14.5 10.837 14.2366 10.2011 13.7678 9.73223C13.2989 9.26339 12.663 9 12 9ZM8.5 11.5C8.5 10.5717 8.86875 9.6815 9.52513 9.02513C10.1815 8.36875 11.0717 8 12 8C12.9283 8 13.8185 8.36875 14.4749 9.02513C15.1313 9.6815 15.5 10.5717 15.5 11.5C15.5 12.4283 15.1313 13.3185 14.4749 13.9749C13.8185 14.6313 12.9283 15 12 15C11.0717 15 10.1815 14.6313 9.52513 13.9749C8.86875 13.3185 8.5 12.4283 8.5 11.5Z" fill="black"/>
</svg>
