<svg width="24" height="24" viewBox="0 0 24 24" fill="none" xmlns="http://www.w3.org/2000/svg">
<path d="M6.25701 6.25701C6.33827 6.17554 6.43481 6.1109 6.54109 6.0668C6.64737 6.0227 6.76131 6 6.87637 6C6.99144 6 7.10538 6.0227 7.21166 6.0668C7.31794 6.1109 7.41448 6.17554 7.49574 6.25701L12.1252 10.8882L16.7547 6.25701C16.8361 6.17567 16.9326 6.11115 17.0389 6.06713C17.1452 6.02311 17.2591 6.00046 17.3741 6.00046C17.4891 6.00046 17.603 6.02311 17.7093 6.06713C17.8156 6.11115 17.9121 6.17567 17.9935 6.25701C18.0748 6.33834 18.1393 6.4349 18.1833 6.54117C18.2273 6.64745 18.25 6.76135 18.25 6.87637C18.25 6.9914 18.2273 7.1053 18.1833 7.21157C18.1393 7.31784 18.0748 7.4144 17.9935 7.49574L13.3622 12.1252L17.9935 16.7547C18.0748 16.8361 18.1393 16.9326 18.1833 17.0389C18.2273 17.1452 18.25 17.2591 18.25 17.3741C18.25 17.4891 18.2273 17.603 18.1833 17.7093C18.1393 17.8156 18.0748 17.9121 17.9935 17.9935C17.9121 18.0748 17.8156 18.1393 17.7093 18.1833C17.603 18.2273 17.4891 18.25 17.3741 18.25C17.2591 18.25 17.1452 18.2273 17.0389 18.1833C16.9326 18.1393 16.8361 18.0748 16.7547 17.9935L12.1252 13.3622L7.49574 17.9935C7.4144 18.0748 7.31784 18.1393 7.21157 18.1833C7.1053 18.2273 6.9914 18.25 6.87637 18.25C6.76135 18.25 6.64745 18.2273 6.54117 18.1833C6.4349 18.1393 6.33834 18.0748 6.25701 17.9935C6.17567 17.9121 6.11115 17.8156 6.06713 17.7093C6.02311 17.603 6.00046 17.4891 6.00046 17.3741C6.00046 17.2591 6.02311 17.1452 6.06713 17.0389C6.11115 16.9326 6.17567 16.8361 6.25701 16.7547L10.8882 12.1252L6.25701 7.49574C6.17554 7.41448 6.1109 7.31794 6.0668 7.21166C6.0227 7.10538 6 6.99144 6 6.87637C6 6.76131 6.0227 6.64737 6.0668 6.54109C6.1109 6.43481 6.17554 6.33827 6.25701 6.25701Z" fill="black"/>
</svg>
