<svg width="28" height="28" viewBox="0 0 28 28" fill="none" xmlns="http://www.w3.org/2000/svg">
<path fill-rule="evenodd" clip-rule="evenodd" d="M4.66602 20.708C4.66602 20.4759 4.7582 20.2534 4.9223 20.0893C5.08639 19.9252 5.30895 19.833 5.54102 19.833H23.041C23.2731 19.833 23.4956 19.9252 23.6597 20.0893C23.8238 20.2534 23.916 20.4759 23.916 20.708C23.916 20.9401 23.8238 21.1626 23.6597 21.3267C23.4956 21.4908 23.2731 21.583 23.041 21.583H5.54102C5.30895 21.583 5.08639 21.4908 4.9223 21.3267C4.7582 21.1626 4.66602 20.9401 4.66602 20.708ZM4.66602 13.708C4.66602 13.4759 4.7582 13.2534 4.9223 13.0893C5.08639 12.9252 5.30895 12.833 5.54102 12.833H23.041C23.2731 12.833 23.4956 12.9252 23.6597 13.0893C23.8238 13.2534 23.916 13.4759 23.916 13.708C23.916 13.9401 23.8238 14.1626 23.6597 14.3267C23.4956 14.4908 23.2731 14.583 23.041 14.583H5.54102C5.30895 14.583 5.08639 14.4908 4.9223 14.3267C4.7582 14.1626 4.66602 13.9401 4.66602 13.708ZM4.66602 6.70801C4.66602 6.47594 4.7582 6.25338 4.9223 6.08929C5.08639 5.9252 5.30895 5.83301 5.54102 5.83301H23.041C23.2731 5.83301 23.4956 5.9252 23.6597 6.08929C23.8238 6.25338 23.916 6.47594 23.916 6.70801C23.916 6.94007 23.8238 7.16263 23.6597 7.32673C23.4956 7.49082 23.2731 7.58301 23.041 7.58301H5.54102C5.30895 7.58301 5.08639 7.49082 4.9223 7.32673C4.7582 7.16263 4.66602 6.94007 4.66602 6.70801Z" fill="#135C9D"/>
</svg>
