<svg width="24" height="24" viewBox="0 0 24 24" fill="none" xmlns="http://www.w3.org/2000/svg">
<g clip-path="url(#clip0_4054_1514)">
<path d="M17.6143 15.5161C19.0668 13.5342 19.7173 11.0769 19.4358 8.63587C19.1543 6.19486 17.9615 3.95016 16.096 2.35085C14.2305 0.751532 11.83 -0.0844439 9.3746 0.0101658C6.91923 0.104776 4.59012 1.12299 2.85325 2.86111C1.11637 4.59923 0.0998225 6.92907 0.0069698 9.3845C-0.0858829 11.8399 0.751811 14.2399 2.35246 16.1042C3.95311 17.9685 6.19866 19.1598 8.63988 19.4395C11.0811 19.7193 13.5379 19.067 15.5188 17.6131H15.5173C15.5623 17.6731 15.6103 17.7302 15.6643 17.7857L21.4393 23.5606C21.7206 23.8421 22.1022 24.0003 22.5001 24.0005C22.898 24.0006 23.2796 23.8427 23.5611 23.5614C23.8426 23.2801 24.0008 22.8986 24.0009 22.5007C24.001 22.1028 23.8431 21.7211 23.5618 21.4397L17.7868 15.6646C17.7332 15.6104 17.6756 15.5602 17.6143 15.5147V15.5161ZM18.0013 9.75015C18.0013 10.8336 17.788 11.9064 17.3734 12.9073C16.9588 13.9082 16.3511 14.8177 15.585 15.5838C14.8189 16.3499 13.9094 16.9576 12.9085 17.3722C11.9075 17.7868 10.8348 18.0002 9.75135 18.0002C8.66794 18.0002 7.59514 17.7868 6.59421 17.3722C5.59327 16.9576 4.6838 16.3499 3.91772 15.5838C3.15163 14.8177 2.54394 13.9082 2.12934 12.9073C1.71474 11.9064 1.50135 10.8336 1.50135 9.75015C1.50135 7.56211 2.37054 5.4637 3.91772 3.91652C5.46489 2.36935 7.56331 1.50015 9.75135 1.50015C11.9394 1.50015 14.0378 2.36935 15.585 3.91652C17.1322 5.4637 18.0013 7.56211 18.0013 9.75015Z" fill="black"/>
</g>
<defs>
<clipPath id="clip0_4054_1514">
<rect width="24" height="24" fill="white"/>
</clipPath>
</defs>
</svg>
