<svg width="20" height="20" viewBox="0 0 20 20" fill="none" xmlns="http://www.w3.org/2000/svg">
<circle cx="10.0048" cy="18.4721" r="0.8415" fill="#135C9D"/>
<rect x="9.16333" y="14.8958" width="1.683" height="3.57638" fill="#135C9D"/>
<path d="M13.2131 13.9492C12.6661 14.2858 11.4074 14.7206 10.8464 14.8959C10.7762 14.8959 8.73212 15.1484 7.00704 15.1063C4.37735 14.9485 1.74765 13.844 0.853548 13.5285C-0.0405558 13.2129 -0.198318 11.7929 0.222432 11.2144C0.559033 10.7515 0.783426 10.1099 0.853548 9.84691C0.818486 9.23332 0.811473 7.78524 1.06392 6.90166C1.37949 5.79719 2.48396 3.00972 5.4818 1.80006C7.88008 0.832338 9.84708 0.941032 10.5308 1.11634C11.3022 1.16894 13.2236 1.61073 14.7383 2.95713C16.6317 4.64013 16.4213 4.79791 16.9472 5.79719C17.4732 6.79647 17.5784 8.2691 17.5258 8.63726C17.4837 8.93178 17.8589 9.35604 18.0517 9.53135C18.3848 9.70666 19.1141 10.0888 19.3666 10.2151C19.6821 10.3729 19.8925 10.5832 19.9451 10.9514C19.9977 11.3195 20.3658 12.6344 18.1569 12.6344C14.4753 12.7396 13.8968 13.5285 13.2131 13.9492Z" fill="#135C9D"/>
</svg>
