<svg width="24" height="24" viewBox="0 0 24 24" fill="none" xmlns="http://www.w3.org/2000/svg">
<path d="M0.75 14.8496C0.948912 14.8496 1.13968 14.9286 1.28033 15.0693C1.42098 15.2099 1.5 15.4007 1.5 15.5996V19.3496C1.5 19.7474 1.65804 20.129 1.93934 20.4103C2.22064 20.6916 2.60218 20.8496 3 20.8496H21C21.3978 20.8496 21.7794 20.6916 22.0607 20.4103C22.342 20.129 22.5 19.7474 22.5 19.3496V15.5996C22.5 15.4007 22.579 15.2099 22.7197 15.0693C22.8603 14.9286 23.0511 14.8496 23.25 14.8496C23.4489 14.8496 23.6397 14.9286 23.7803 15.0693C23.921 15.2099 24 15.4007 24 15.5996V19.3496C24 20.1453 23.6839 20.9083 23.1213 21.4709C22.5587 22.0335 21.7956 22.3496 21 22.3496H3C2.20435 22.3496 1.44129 22.0335 0.87868 21.4709C0.316071 20.9083 0 20.1453 0 19.3496V15.5996C0 15.4007 0.0790176 15.2099 0.21967 15.0693C0.360322 14.9286 0.551088 14.8496 0.75 14.8496Z" fill="black"/>
<path d="M11.4699 1.71936C11.5396 1.64952 11.6224 1.5941 11.7135 1.5563C11.8046 1.51849 11.9023 1.49902 12.0009 1.49902C12.0996 1.49902 12.1973 1.51849 12.2884 1.5563C12.3795 1.5941 12.4623 1.64952 12.5319 1.71936L17.0319 6.21936C17.1728 6.36019 17.2519 6.5512 17.2519 6.75036C17.2519 6.94953 17.1728 7.14053 17.0319 7.28136C16.8911 7.42219 16.7001 7.50131 16.5009 7.50131C16.3018 7.50131 16.1108 7.42219 15.9699 7.28136L12.7509 4.06086V17.2504C12.7509 17.4493 12.6719 17.64 12.5313 17.7807C12.3906 17.9213 12.1999 18.0004 12.0009 18.0004C11.802 18.0004 11.6113 17.9213 11.4706 17.7807C11.33 17.64 11.2509 17.4493 11.2509 17.2504V4.06086L8.03195 7.28136C7.96222 7.3511 7.87943 7.40641 7.78832 7.44415C7.69721 7.48189 7.59956 7.50131 7.50095 7.50131C7.40233 7.50131 7.30468 7.48189 7.21357 7.44415C7.12246 7.40641 7.03968 7.3511 6.96995 7.28136C6.90022 7.21163 6.8449 7.12885 6.80716 7.03774C6.76942 6.94663 6.75 6.84898 6.75 6.75036C6.75 6.65175 6.76942 6.5541 6.80716 6.46299C6.8449 6.37188 6.90022 6.2891 6.96995 6.21936L11.4699 1.71936Z" fill="black"/>
</svg>
